<svg aria-hidden="true" style="position: absolute; width: 0; height: 0; overflow: hidden;" version="1.1" xmlns="http://www.w3.org/2000/svg" xmlns:xlink="http://www.w3.org/1999/xlink">
<defs>
<symbol id="icon-account" viewBox="0 0 32 32">
<path d="M16 2.667c-7.36 0-13.333 5.973-13.333 13.333s5.973 13.333 13.333 13.333c7.36 0 13.333-5.973 13.333-13.333s-5.973-13.333-13.333-13.333zM9.427 24.373c0.573-1.2 4.067-2.373 6.573-2.373s6.013 1.173 6.573 2.373c-1.813 1.44-4.093 2.293-6.573 2.293s-4.76-0.853-6.573-2.293zM24.48 22.44c-1.907-2.32-6.533-3.107-8.48-3.107s-6.573 0.787-8.48 3.107c-1.36-1.787-2.187-4.013-2.187-6.44 0-5.88 4.787-10.667 10.667-10.667s10.667 4.787 10.667 10.667c0 2.427-0.827 4.653-2.187 6.44zM16 8c-2.587 0-4.667 2.080-4.667 4.667s2.080 4.667 4.667 4.667c2.587 0 4.667-2.080 4.667-4.667s-2.080-4.667-4.667-4.667zM16 14.667c-1.107 0-2-0.893-2-2s0.893-2 2-2c1.107 0 2 0.893 2 2s-0.893 2-2 2z"></path>
</symbol>
<symbol id="icon-instagram" viewBox="0 0 32 32">
<path d="M10.4 2.667h11.2c4.271 0 7.733 3.462 7.733 7.733v11.2c0 4.271-3.462 7.733-7.733 7.733h-11.2c-4.271 0-7.733-3.462-7.733-7.733v-11.2c0-4.271 3.462-7.733 7.733-7.733zM10.133 5.333c-2.651 0-4.8 2.149-4.8 4.8v11.733c0 2.651 2.149 4.8 4.8 4.8h11.733c2.651 0 4.8-2.149 4.8-4.8v-11.733c0-2.651-2.149-4.8-4.8-4.8h-11.733zM23 7.333c0.921 0 1.667 0.746 1.667 1.667s-0.746 1.667-1.667 1.667c-0.921 0-1.667-0.746-1.667-1.667s0.746-1.667 1.667-1.667zM16 9.333c3.682 0 6.667 2.985 6.667 6.667s-2.985 6.667-6.667 6.667c-3.682 0-6.667-2.985-6.667-6.667s2.985-6.667 6.667-6.667zM16 12c-2.209 0-4 1.791-4 4s1.791 4 4 4 4-1.791 4-4c0-2.209-1.791-4-4-4z"></path>
</symbol>
<symbol id="icon-twitter" viewBox="0 0 32 32">
<path d="M29.946 8.017c-1.026 0.455-2.129 0.763-3.286 0.901 1.181-0.708 2.089-1.83 2.516-3.166-1.106 0.656-2.33 1.132-3.634 1.389-1.044-1.112-2.531-1.807-4.177-1.807-3.16 0-5.722 2.562-5.722 5.722 0 0.448 0.051 0.885 0.148 1.304-4.756-0.239-8.972-2.517-11.794-5.979-0.493 0.845-0.775 1.828-0.775 2.877 0 1.985 1.010 3.737 2.546 4.763-0.938-0.030-1.82-0.287-2.592-0.716-0.001 0.024-0.001 0.048-0.001 0.072 0 2.773 1.972 5.085 4.59 5.611-0.48 0.131-0.986 0.201-1.508 0.201-0.369 0-0.727-0.036-1.077-0.103 0.728 2.273 2.841 3.928 5.345 3.974-1.958 1.535-4.426 2.45-7.107 2.45-0.462 0-0.917-0.027-1.365-0.080 2.532 1.624 5.54 2.571 8.772 2.571 10.525 0 16.281-8.719 16.281-16.281 0-0.248-0.006-0.495-0.017-0.74 1.118-0.807 2.088-1.815 2.855-2.962z"></path>
</symbol>
<symbol id="icon-scroll" viewBox="0 0 168 32">
<path d="M4.272 15.408c0 0.32 0.208 0.584 0.624 0.792 0.432 0.192 0.952 0.368 1.56 0.528 0.608 0.144 1.216 0.336 1.824 0.576 0.608 0.224 1.12 0.608 1.536 1.152 0.432 0.544 0.648 1.224 0.648 2.040 0 1.232-0.464 2.184-1.392 2.856-0.912 0.656-2.056 0.984-3.432 0.984-2.464 0-4.144-0.952-5.040-2.856l2.688-1.512c0.352 1.040 1.136 1.56 2.352 1.56 1.104 0 1.656-0.344 1.656-1.032 0-0.32-0.216-0.576-0.648-0.768-0.416-0.208-0.928-0.392-1.536-0.552s-1.216-0.36-1.824-0.6c-0.608-0.24-1.128-0.616-1.56-1.128-0.416-0.528-0.624-1.184-0.624-1.968 0-1.184 0.432-2.112 1.296-2.784 0.88-0.688 1.968-1.032 3.264-1.032 0.976 0 1.864 0.224 2.664 0.672 0.8 0.432 1.432 1.056 1.896 1.872l-2.64 1.44c-0.384-0.816-1.024-1.224-1.92-1.224-0.4 0-0.736 0.088-1.008 0.264-0.256 0.176-0.384 0.416-0.384 0.72zM18.003 24.336c-1.808 0-3.32-0.608-4.536-1.824-1.2-1.216-1.8-2.72-1.8-4.512s0.6-3.296 1.8-4.512c1.216-1.216 2.728-1.824 4.536-1.824 1.168 0 2.232 0.28 3.192 0.84s1.688 1.312 2.184 2.256l-2.664 1.56c-0.24-0.496-0.608-0.888-1.104-1.176-0.48-0.288-1.024-0.432-1.632-0.432-0.928 0-1.696 0.312-2.304 0.936-0.608 0.608-0.912 1.392-0.912 2.352 0 0.944 0.304 1.728 0.912 2.352 0.608 0.608 1.376 0.912 2.304 0.912 0.624 0 1.176-0.136 1.656-0.408 0.496-0.288 0.864-0.68 1.104-1.176l2.688 1.536c-0.528 0.944-1.272 1.704-2.232 2.28-0.96 0.56-2.024 0.84-3.192 0.84zM28.254 14.064c0.288-0.768 0.76-1.344 1.416-1.728 0.672-0.384 1.416-0.576 2.232-0.576v3.456c-0.944-0.112-1.792 0.080-2.544 0.576-0.736 0.496-1.104 1.32-1.104 2.472v5.736h-3.096v-12h3.096v2.064zM43.492 22.512c-1.232 1.216-2.736 1.824-4.512 1.824s-3.28-0.608-4.512-1.824c-1.216-1.232-1.824-2.736-1.824-4.512s0.608-3.272 1.824-4.488c1.232-1.232 2.736-1.848 4.512-1.848s3.28 0.616 4.512 1.848c1.232 1.216 1.848 2.712 1.848 4.488s-0.616 3.28-1.848 4.512zM36.652 20.376c0.624 0.624 1.4 0.936 2.328 0.936s1.704-0.312 2.328-0.936c0.624-0.624 0.936-1.416 0.936-2.376s-0.312-1.752-0.936-2.376c-0.624-0.624-1.4-0.936-2.328-0.936s-1.704 0.312-2.328 0.936c-0.608 0.624-0.912 1.416-0.912 2.376s0.304 1.752 0.912 2.376zM47.518 24v-17.52h3.096v17.52h-3.096zM53.447 24v-17.52h3.096v17.52h-3.096zM74.473 7.2h3.096v16.8h-3.096v-1.416c-0.912 1.168-2.208 1.752-3.888 1.752-1.616 0-3-0.608-4.152-1.824-1.136-1.232-1.704-2.736-1.704-4.512s0.568-3.272 1.704-4.488c1.152-1.232 2.536-1.848 4.152-1.848 1.68 0 2.976 0.584 3.888 1.752v-6.216zM68.761 20.448c0.64 0.624 1.44 0.936 2.4 0.936s1.752-0.312 2.376-0.936c0.624-0.64 0.936-1.456 0.936-2.448s-0.312-1.8-0.936-2.424c-0.624-0.64-1.416-0.96-2.376-0.96s-1.76 0.32-2.4 0.96c-0.624 0.624-0.936 1.432-0.936 2.424s0.312 1.808 0.936 2.448zM90.624 22.512c-1.232 1.216-2.736 1.824-4.512 1.824s-3.28-0.608-4.512-1.824c-1.216-1.232-1.824-2.736-1.824-4.512s0.608-3.272 1.824-4.488c1.232-1.232 2.736-1.848 4.512-1.848s3.28 0.616 4.512 1.848c1.232 1.216 1.848 2.712 1.848 4.488s-0.616 3.28-1.848 4.512zM83.784 20.376c0.624 0.624 1.4 0.936 2.328 0.936s1.704-0.312 2.328-0.936c0.624-0.624 0.936-1.416 0.936-2.376s-0.312-1.752-0.936-2.376c-0.624-0.624-1.4-0.936-2.328-0.936s-1.704 0.312-2.328 0.936c-0.608 0.624-0.912 1.416-0.912 2.376s0.304 1.752 0.912 2.376zM107.694 12h3.288l-3.816 12h-2.952l-2.208-7.272-2.208 7.272h-2.952l-3.816-12h3.288l2.040 7.368 2.184-7.368h2.928l2.184 7.392 2.040-7.392zM119.322 11.664c1.312 0 2.392 0.44 3.24 1.32 0.864 0.88 1.296 2.096 1.296 3.648v7.368h-3.096v-6.984c0-0.8-0.216-1.408-0.648-1.824-0.432-0.432-1.008-0.648-1.728-0.648-0.8 0-1.44 0.248-1.92 0.744s-0.72 1.24-0.72 2.232v6.48h-3.096v-12h3.096v1.344c0.752-1.12 1.944-1.68 3.576-1.68z"></path>
<path d="M168 21.333l-1.88-1.88-7.453 7.44v-26.893h-2.667v26.893l-7.44-7.453-1.893 1.893 10.667 10.667 10.667-10.667z"></path>
</symbol>
<symbol id="icon-arrow_downward_24px" viewBox="0 0 21 32">
<path d="M21.333 21.333l-1.88-1.88-7.453 7.44v-26.893h-2.667v26.893l-7.44-7.453-1.893 1.893 10.667 10.667 10.667-10.667z"></path>
</symbol>
<symbol id="icon-arrow_right_24px" viewBox="0 0 48 32">
<path fill="#fbd784" style="fill: var(--color1, #fbd784)" d="M32 0l-2.82 2.82 11.16 11.18h-40.34v4h40.34l-11.18 11.16 2.84 2.84 16-16-16-16z"></path>
</symbol>
</defs>
</svg>
